<svg width="189" height="150" fill="none" xmlns="http://www.w3.org/2000/svg"><g clip-path="url(#clip0_121_1059)"><path d="M136.557 12.815c-1.307-.532-2.571-1.132-3.875-1.653-2.183-.898-4.363-1.812-6.554-2.69-6.938-2.782-13.901-2.702-20.935-.282-5.07 1.744-10.217 3.219-15.568 3.926a31.41 31.41 0 01-16.9-2.325c-3.29-1.422-6.554-2.916-9.877-4.256a46.729 46.729 0 00-18.16-3.326 7.408 7.408 0 01-2.115.056c-.8-.048-1.056.338-1.1 1.025-.027.47-.023.938-.027 1.41 0 5.64.031 11.278 0 16.917 0 1.653-.576 2.309-2.228 2.603-1.404-.187-2.036-1.061-2.195-2.384a14.485 14.485 0 01-.08-1.769V5.333a6.154 6.154 0 00-.076-1.41c-.096-.398-.204-.796-.776-.625a42.162 42.162 0 00-16.36 7.832l-1.848 1.455c-.887.647-.891.902.104 1.43a10.318 10.318 0 013.975 3.6c3.66 5.71.44 13.555-6.21 14.99-3.2.687-6.114.11-8.67-1.987a3.201 3.201 0 00-1.096-.688c-.927.143-.611 1.057-.975 1.55a72.977 72.977 0 00-3.675 13.84C-.54 57.682-.808 69.99 3.096 82.061c4.518 13.984 14.348 21.975 28.72 24.637 8.746 1.622 17.48 1.061 26.197-.345 5.071-.819 10.058-2.019 15.032-3.271.344-.087.7-.123 1.048-.183.576-.135 1.372-.067.992-1.076-1.624-5.647 1.2-10.829 6.23-12.617a1.64 1.64 0 00.94-.671c.221-.33.314-.728.26-1.121-.104-1.872.304-3.767-.3-5.615-.16-.48.144-.668.54-.691a31.754 31.754 0 013.791 0c.528.027.62.302.436.794-.72 1.987-.284 4.034-.3 6.06 0 .58.46.879.96 1.081.8.326 1.6.72 2.351 1.12a9.942 9.942 0 013.157 3.116 9.855 9.855 0 01.988 8.563 9.902 9.902 0 01-2.365 3.744c-.332.334-.68.655-1.012.989-.332.334-.444.564-.064.89 1.9.898 3.799 1.788 5.674 2.734a1.09 1.09 0 00.996.143c3.055-4.049 7.494-6.29 11.729-8.77 4.763-2.781 9.71-5.233 14.661-7.669.451-.223.963-.378 1.243-.858.076-.485-.316-.68-.608-.926a12.264 12.264 0 01-3.599-4.729c-.376-.612-1.015-.862-1.599-1.148a39.553 39.553 0 01-7.258-4.24 11.784 11.784 0 01-2.424-2.412c-1.2-1.645-.8-3.14 1.092-3.867 2.183-.834 4.471-.882 6.778-.703 2.208.17 4.399.493 6.587.747.309-.073.6-.209.855-.397 4.071-2.52 8.062-2.258 11.997.341a10.903 10.903 0 013.251 4.204c.176.398.236.95.904.85a2.45 2.45 0 00.8-1.147c1.852-4.062 3.295-8.25 3.859-12.716a4.55 4.55 0 00-.988-3.613c-3.071-3.906-3.099-8.694-.212-12.553a5.404 5.404 0 011.148-1.192 2.525 2.525 0 013.275.04c1.444 1.14 2.252 2.71 2.903 4.371.444 1.14.684 2.34 1.104 3.485.204.553.4 1.192 1.104 1.248.704.055 1.048-.489 1.356-.99a26.64 26.64 0 012.991-4.236c3.115-3.373 6.778-5.79 11.453-6.322 1.599-.183 3.227-.27 4.823-.548a20.106 20.106 0 006.798-2.333c.872-.516 1.088-.282 1.3.596.743 3.1 1.463 6.2 1.303 9.422a1.63 1.63 0 00.228 1.133c4.163-2.89 5.667-6.644 4.267-11.922a22.357 22.357 0 01-.524-7.9c.8-9.365-5.146-19.995-17.071-22.344a27.616 27.616 0 00-9.898-.08c-.424.069-6.702 2.433-13.656 1.257.008 0-6.911-.04-10.782-1.606z" fill="#09112B"/><path d="M124.96 92.981c-6.202 3.092-12.417 6.16-18.375 9.704-2.575 1.534-5.131 3.099-7.37 5.11-.764.688-2.916 4.149-3.26 5.059a58.812 58.812 0 00-2.607 8.718c-.204.691-.8 4.137-.956 4.49-.235.529-1.423 8.496-1.423 8.496-.212 1.256-.9 8.019-.716 8.965 0 .195.044 1.887.24 1.895.37.139.77.176 1.16.108H111.9c.599-.203.527-.74.531-1.193.084-8.921-.176-17.81-2.607-26.484a29.842 29.842 0 00-2.547-6.303c1.979 3.525 3.007 7.368 3.735 11.298 1.283 6.894 1.503 13.864 1.471 20.854 0 .624-.583 1.816.488 1.812H140.8c.592-.191.26-.549.116-.819a7.961 7.961 0 00-1.223-1.589c-1.636-1.789-1.892-3.93-1.548-6.168.508-3.286 1.244-6.54 1.508-9.862.143-1.82-.148-3.509-1.572-4.856a93.78 93.78 0 01-3.115-3.064 10.638 10.638 0 01-3.067-7.55c-.032-5.166.531-10.332.483-15.498 0-.64.172-1.359-.48-1.847-.635-.27-1.315-.12-1.975-.203a12.826 12.826 0 01-3.647-.87c-.408-.167-.824-.477-1.32-.203z" fill="#FEFEFE"/><path d="M184.217 55.43c.496-4.161-.6-8.11-1.623-12.196a21.526 21.526 0 01-8.754 3.179c-1.484.219-2.999.223-4.479.469-5.998.997-10.333 4.447-13.553 9.43-.299.465-.551.953-.851 1.414-.236.362-.488.795-.968.795s-.648-.537-.8-.942c-.192-.552-.344-1.124-.496-1.693a14.767 14.767 0 00-2.679-5.595c-1.82-2.217-3.787-2.205-5.631 0-3.199 3.867-3.311 8.842-.04 13.138.976 1.283 1.1 2.487.888 3.93a44.028 44.028 0 01-4.399 13.371.642.642 0 00.268.473c2.572 1.379 5.275 2.523 7.598 4.34a16.922 16.922 0 012.876 2.78c1.343 1.706.895 3.243-1.156 3.975-2.56.902-5.199.691-7.862.548-1.2-.064-2.4-.576-3.599-.14-.292.51.052.915.256 1.312a83.812 83.812 0 015.922 14.25c.109.338.277.654.496.934 1.544 2.189 3.135 4.339 4.875 6.386a21.947 21.947 0 003.831 3.5c.128.096.264.179.4.259 2.851 1.724 5.442.945 6.798-2.071.956-2.11 1.284-4.371 1.456-6.648-.372-3.147-1.38-6.151-2.124-9.219-.368-1.514-1.008-2.952-1.224-4.506-.036-.437-.399-.612-.679-.862-.704-.592-1.376-1.22-1.536-2.198a13.367 13.367 0 010-3.683c.34-3.398 1.504-6.394 4.263-8.603.988-.795 1.999-.747 3.059-.072 1.404.898 2.516 2.138 3.831 3.14.936.71 1.96 1.283 3.127 1.243a3.085 3.085 0 001.644-.437 3.058 3.058 0 001.156-1.24c.728-1.41.987-2.972 1.515-4.446.344-.958.632-1.952 1.644-2.488.468-.246.456-.795.68-1.192a2.02 2.02 0 01.696-1.03 2.622 2.622 0 00.327-1.899c-.283-1.59.112-2.257 1.6-2.996.74-.365 1.512-.663 2.259-1.013.928-.437 1.268-1.156.908-2.122-.4-1.1-.86-2.186-1.291-3.278a4.77 4.77 0 01-.484-1.8 4.539 4.539 0 010-2.198c.4-1.55 1.227-2.885 1.855-4.3z" fill="#ECB37C"/><path d="M183.821 145.402c1.132-.496.188-6.358 0-7.081-.08-.079-.292-4.252-.48-4.955-.076-.083-.799-7.244-1.071-8.706-.252-1.272-.824-4.117-.824-4.276a8.418 8.418 0 00-2.895-5.508c-1.848-1.633-6.931-6.576-7.678-7.355-.988-.942-1.92-1.943-2.928-2.869-.759-.489-1.295-1.22-1.975-1.792-.28-.235-.548-.719-1.032-.266.244 1.486 1.296 2.567 1.968 3.838 1.567 2.957 3.247 5.849 4.45 8.981a9.554 9.554 0 01-.463 7.983c-2.6 5.217-2.096 4.967-.208 9.743 1.043 2.647 1.663 5.321.971 8.163a9.853 9.853 0 01-1.563 3.286c-.18.262-1.476.946.06.938 4.131-.024 8.258 0 12.397 0 .42-.016.859.091 1.271-.124z" fill="#FEFEFE"/><path d="M11.417 12.775a14.654 14.654 0 014.043 0h.156c.456.191 1.951.604 2 .624.178.146.372.27.58.37 3.998 2.181 5.85 5.563 5.574 10.081a10.01 10.01 0 01-2.153 5.45 10.111 10.111 0 01-4.845 3.332c-4.12 1.3-7.766.43-10.798-2.694-.531-.067-1.747-2.297-2.143-3-.432-.898-.504-1.884-.708-2.837v-2.36a10.14 10.14 0 012.647-5.853 10.251 10.251 0 015.647-3.113zm134.442 96.3c-.8-2.166-1.548-4.344-2.367-6.497a96.784 96.784 0 00-4.555-9.808.579.579 0 00-.743-.374.58.58 0 00-.253.172 1.54 1.54 0 00.324 1.1c5.554 10.209 8.694 21.133 9.885 32.653.427 4.421.561 8.865.4 13.304a46.636 46.636 0 01-.7 7.152c-.068.47-.203.927-.399 1.359-.368.747-.992 1.034-1.632.485-2.731-2.344-5.259-4.888-6.974-8.094-.4-.795-.3-1.685-.184-2.551.4-2.965.996-5.897 1.415-8.854a20.58 20.58 0 00.108-4.001 5.18 5.18 0 00-1.523-3.247c-1.172-1.28-2.608-2.281-3.707-3.644-2.048-2.539-2.74-5.448-2.52-8.619.184-2.623.444-5.245.4-7.876-.024-1.987.128-3.926.24-5.885.032-.576.108-1.192-.284-1.713-.4-.174-.8-.317-1.023.263.399.334.247.794.267 1.212.168 3.453-.203 6.898-.303 10.331-.052 1.916-.156 3.835-.16 5.754a10.581 10.581 0 00.805 4.189 10.64 10.64 0 002.394 3.54c.968.986 1.927 1.987 2.947 2.909 1.532 1.387 1.672 3.095 1.556 5.027-.228 3.679-1.28 7.228-1.564 10.896-.168 2.189.716 3.866 2.024 5.456.451.544.879 1.1 1.315 1.653.124.397.54.552.76.874.976.965 1.939 1.955 2.935 2.905.996.949 1.812 1.069 2.979.488l.228-.226c.632-.843.776-1.848.956-2.837.192-.656.292-1.332.496-1.987 1.356-11.254.14-22.305-2.643-33.232a12.855 12.855 0 00-.9-2.277z" fill="#E5E5E5"/><path d="M169.837 145.383c3.155-3.72 2.879-7.801 1.276-12.017-.348-.918-.704-1.836-1.124-2.718-.8-1.729-.68-3.39.176-5.063.98-1.915 1.883-3.826 2.111-6.055.192-1.904-.348-3.577-1.023-5.206-1.572-3.819-3.66-7.379-5.791-10.912a2.04 2.04 0 01-.4-.966.384.384 0 00.12-.325c-.52-.489-.728-1.411-1.724-1.248-.367.703.136 1.192.44 1.721 1.852 3.159 3.739 6.294 5.347 9.584.4.85.76 1.729 1.164 2.583 1.395 2.913 1.199 5.786-.216 8.623a35.892 35.892 0 00-1.22 2.686 5.845 5.845 0 00-.084 4.26c.468 1.339 1.072 2.623 1.548 3.974 1.043 2.94 1.463 5.881-.168 8.778a11.374 11.374 0 01-2.64 3.155c-.268.222-.587.465-.963.258-.316-.171-.308-.528-.312-.838 0-1.415.164-2.822.268-4.228.204-3.33.204-6.669 0-9.998a124.124 124.124 0 00-1.62-14.504 150.597 150.597 0 00-3.999-17.342.907.907 0 01-.088-.572c.4.151.64.596 1.128.509.24-.084.284-.27.132-.437a20.734 20.734 0 00-2.4-2.337c-.136-.115-.287-.04-.399.06.183 2.046 1.099 3.906 1.535 5.889.592 2.674 1.508 5.273 1.812 8.007.727 5.678 1.927 11.293 2.367 17.011.445 5.401.471 10.828.076 16.233-.08 1.077-.8 1.105-1.6 1.109h-12.332c-.588 0-1.2-.072-1.744.226a.273.273 0 00-.083.068.269.269 0 00-.047.096.276.276 0 00-.003.107.277.277 0 00.041.099h14.32c.832 0 1.412.127 1.628 1.108.216.982 1.116 1.256 2.079.898a3.729 3.729 0 001.904-1.51c.26-.218.508-.409.508-.766z" fill="#E5E6E5"/><path d="M91.345 106.488c5.286-4.649 4.755-12.804-1.092-16.48-.376.474-.136.982-.036 1.455.496 2.42-.104 4.63-1.228 6.755-.232.434-.655.795-.476 1.38.328.373.78.33 1.2.333.67.006 1.34.066 2 .179 2.083.35 2.22.596 1.32 2.48a9.409 9.409 0 01-5.432 4.767 9.473 9.473 0 01-7.233-.476c-.448-.226-.844-.6-1.396-.58-.428.119-.492.346-.164.636.228.198.56.262.748.52 2.463 1.634 5.135 1.693 7.89 1.002.8-.203 1.547-.545 2.32-.823.28-.246 1.323-.918 1.579-1.148z" fill="#76D7D3"/><path d="M36.559.087c1.911.032 3.843-.314 5.738.183-.204.206-.48.327-.771.338-.941.06-1.886.028-2.82-.095.824 0 .84.77.844 1.486.028 3.377.02 6.755 0 10.14.035.395-.056.79-.26 1.13-1.316.285-1.492 1.191-1.428 2.356.086 1.638.086 3.28 0 4.92-.06 1.334.176 2.47 1.4 3.226a.633.633 0 01-.072.775c-1.76-.227-2.491-1.101-2.495-3.06V4.399a2.534 2.534 0 000-.795c.004-.06.004-.12 0-.179v-.147c.028-.167.052-.337.068-.5a1.099 1.099 0 000-.2c.248-.512.112-1.076-.34-1.672-.296-.366-.512-.83.136-.819z" fill="#93E8E7"/><path d="M41.57.282c.46.223.431.584.271.978-.01.15.008.301.056.445a1.225 1.225 0 00-.056.198 3.13 3.13 0 00-.032 1.038c0 .162.028.321.032.484a3.887 3.887 0 000 .445c.064 5.961 0 11.941.056 17.91 0 1.446-1.2 2.98-2.683 2.782v-.664c.132-.233.331-.421.572-.54a1.644 1.644 0 00.952-1.515c0-2.626.124-5.249-.052-7.875-.28-.668-1.12-.18-1.472-.708 0-3.799-.02-7.597.024-11.396 0-.89-.276-1.192-1.148-1.12-.436.027-.983.23-1.543-.446l5.022-.016z" fill="#77D7D3"/><path d="M112.827 145.394v-2.122c.09-5.248-.164-10.496-.759-15.712-.66-5.523-1.724-10.983-4.399-15.986-.112-.207-.208-.425-.324-.628-.116-.202-.308-.54-.628-.345-.32.194-.036.46.084.679 2.511 4.574 3.623 9.537 4.399 14.647.964 6.465.96 12.958.916 19.471-.128.092-.124.175 0 .251h.459c.084-.096.228-.115.252-.255z" fill="#E6E6E6"/><path d="M79.56 107.453c.108-.536-.964-.345-.632-1.021 0-.596-.476-.882-.828-1.224a8.936 8.936 0 01-1.903-2.543 1.526 1.526 0 00-.544-.612.906.906 0 00-.8-.079c.428.882-.496.631-.78.921.8-.027 1.272.37 1.684 1.03.947 1.522 2.051 2.873 3.803 3.528z" fill="#84D9D3"/><path d="M148.922 146.583c-.317.945-.636 1.891-.956 2.837z" fill="#DAF3F2"/><path d="M3.819 26.946a13.837 13.837 0 00-.708-2.837z" fill="#D5F3F2"/><path d="M41.57.282c.18.294.275.633.271.978.108-.35.824-.422.456-.99l-.728.012z" fill="#8FDFDB"/><path d="M137.997 92.576a1.55 1.55 0 01.94.195c2.587.226 5.166.611 7.778.476a12.846 12.846 0 004.047-.73c2.035-.796 2.499-2.27 1.315-4.114a10.73 10.73 0 00-2.527-2.618 36.498 36.498 0 00-8.466-4.856c-.752.318-.444.794-.204 1.275 1.264.998 2.716 1.725 3.971 2.738.477.343.884.771 1.2 1.264.672 1.16.4 1.935-.888 2.356a10.344 10.344 0 01-3.507.37 15.541 15.541 0 01-1.772-.076 59.6 59.6 0 01-8.413-1.688 51.442 51.442 0 01-11.39-4.495 15.38 15.38 0 01-3.859-2.877c-1.333-1.444-1.029-2.41.912-2.9a10.012 10.012 0 014.219-.191c.462.104.94.118 1.408.04.54-.259 1.152-.438 1.2-1.193-4.091-.723-8.198-1.398-12.341-.496-3.543.775-4.191 2.92-1.7 5.531 2.667 2.782 6.055 4.494 9.474 6.147.46.219.963.37 1.243.847a68.754 68.754 0 0013.653 4.522c.8.183 1.599.397 2.423.532.436.048.872.259 1.284-.06z" fill="#4C42DA"/><path d="M74.861 101.982l.752.222c.452-.453-.356-1.275.368-1.55.536-.202 1.16.112 1.735.219 3.495.652 6.895.099 10.27-.795a.976.976 0 00.608-.477c.623-1.319 1.443-2.53 1.815-3.973a11.24 11.24 0 00-.156-5.611 5.933 5.933 0 00-2.423-1.192c-.8-.191-.948-.597-.924-1.324.048-1.45 0-2.9 0-4.37 0-.45-.024-.84.444-1.217.576-.46.284-1.156-.488-1.192a56.72 56.72 0 00-4.503 0c-.772.032-1.064.688-.508 1.192a1.433 1.433 0 01.432 1.244c0 1.45-.044 2.905 0 4.371.028.755-.236 1.057-.968 1.308A10.325 10.325 0 0075.4 93.79a10.218 10.218 0 00-.802 7.647c.077.187.165.369.264.545z" fill="#94EAE9"/><path d="M123.969 75.548l-1.172.958c-1.756 1.089-3.295 4.494-2.867 6.334a41.796 41.796 0 0011.405 4.522c1.251-.063 2.075-.922 2.863-1.689a10.947 10.947 0 002.551-3.696 10.89 10.89 0 00.848-4.402 3.283 3.283 0 00-.564-1.987c-3.595-3.016-8.826-3.032-13.064-.04z" fill="#9A89FE"/><path d="M116.966 54.583c-1.619-2.162-3.063-4.276-4.834-6.131a15.951 15.951 0 00-3.26-2.722c-2.635-1.59-5.242-1.534-7.79.178-2.203 1.479-3.799 3.53-5.294 5.663-.5.707-1.008 1.415-1.444 2.158-.4.667-.636.759-1.084 0a53.73 53.73 0 00-3.819-5.683c-.96-1.192-1.967-2.384-3.395-3.06a5.491 5.491 0 00-1.24-.361.446.446 0 00-.4.143c-.103.222.064.397.28.397 1.872.167 1.732 1.483 1.724 2.826a936.484 936.484 0 000 14.973c0 1.152-.232 1.891-1.468 2.086-.223.04-.667.02-.547.429.12.41.48.199.723.143 1.372-.318 2.376-1.192 3.291-2.194 1.904-2.074 3.324-4.486 4.831-6.838.144-.223.308-.437.536-.76 1.312 1.825 2.4 3.677 3.82 5.31a17.272 17.272 0 003.43 3.234c2.596 1.733 5.231 1.8 7.894.155 2.328-1.438 4.031-3.505 5.671-5.626.8-1.026 1.548-2.079 2.359-3.18 1.4 1.892 2.688 3.776 4.215 5.476 1.456 1.622 2.995 3.147 5.199 3.76.303.084.611.145.924.182.184.024.4.056.472-.206a.325.325 0 00-.177-.367.327.327 0 00-.143-.03c-.952-.124-2.076-.24-2.56-1.022-.548-.882-.18-2.066-.188-3.115-.024-3.974 0-7.948 0-11.922 0-1.955.284-2.285 2.256-2.686.308-.063.896.088.8-.421-.096-.509-.644-.239-.984-.167-2.244.48-3.835 1.947-5.315 3.576-1.627 1.773-2.991 3.756-4.483 5.802z" fill="#00E79E"/><path d="M137.033 75.58a10.48 10.48 0 01-1.667 8.266 11.733 11.733 0 01-4.031 3.516 36.979 36.979 0 007.326 1.641l1.283.167a7.94 7.94 0 001.144-6.978c-.172-.42-.46-.842 0-1.263l-.22-.215c-.7-.882-.916-2.026-1.627-2.909-.664-.818-1.288-1.66-2.208-2.225zm-.204 16.753a76.952 76.952 0 01-15.344-4.68c-.26-.108-.532-.43-.84-.068.724 2.36 2.468 3.926 4.311 5.404 2.164 1.017 4.399 1.63 6.831 1.415a1.41 1.41 0 01.987-.18c1.384.156 3.435-.802 4.055-1.89z" fill="#7D77F4"/><path d="M49.807 39.252c2.368-.687 3.495.596 4.42 2.532.859 1.804 2.019 3.46 2.979 5.221a1.353 1.353 0 001.399.795c2.652-.036 5.299.02 7.95-.036a1.5 1.5 0 011.568.93c.544 1.045 1.163 2.05 1.763 3.068.124.21.232.596.592.361.36-.234.072-.48-.06-.707-.568-.985-1.112-1.987-1.727-2.948a1.548 1.548 0 01-.032-1.896c1.36-2.21 2.603-4.49 3.95-6.704a1.527 1.527 0 00-.02-1.816c-1.383-2.285-2.687-4.621-4.054-6.914a1.144 1.144 0 010-1.379c.727-1.164 1.395-2.384 2.075-3.576.136-.239.516-.537.064-.775-.452-.239-.476.278-.612.497-.696 1.14-1.391 2.285-2.02 3.465a1.27 1.27 0 01-1.304.751c-2.686-.028-5.378 0-8.065-.028a1.46 1.46 0 00-1.488.858c-1.295 2.333-2.687 4.618-3.998 6.95a1.342 1.342 0 01-.57.631 1.353 1.353 0 01-.838.164c-1.38-.048-2.767-.024-4.151 0-.28 0-.776-.159-.8.247 0 .552.532.294.828.31.728.027 1.44 0 2.151 0zm63.948-5.054a4.709 4.709 0 001.524-2.837c.148-.998.86-1.717 1.543-2.448 2.344-2.523 3.088-5.484 1.864-8.71-1.16-3.06-3.479-4.932-6.798-5.321-3.448-.398-6.195.89-8.098 3.787a8.126 8.126 0 00.999 10.085c.968.985 1.74 2.007 1.896 3.417.035.315.166.612.376.85.581.63.908 1.45.92 2.305.347 0 .292-.663.767-.449.909.379 1.906.5 2.88.35a3.661 3.661 0 011.395.04c.684-.052.38-.783.732-1.07z" fill="#E9C551"/><path d="M42.821 99.78c3.247 0 6.49-.028 9.738 0 .955 0 1.315-.254 1.307-1.26-.04-5.384 0-10.772-.02-16.16a5.857 5.857 0 00-.028-.704c-.024-.199-.092-.397-.336-.397-.243 0-.271.234-.283.425v.826c0 5.166-.024 10.304.02 15.454 0 .914-.22 1.192-1.172 1.192-6.21-.044-12.425-.024-18.636-.024h-.831c-.276 0-.552-.031-.564.275 0 .397.336.37.604.373h10.2z" fill="#01DA97"/><path d="M56.83 61.859c-2.32.795-3.947 2.237-4.447 4.737-.34 1.692.232 3.179 1.055 4.59a.395.395 0 00.176.431.4.4 0 00.156.057 20.61 20.61 0 001.888 1.172 5.84 5.84 0 004.133.331 5.802 5.802 0 003.301-2.493l.56-.886a.572.572 0 00.212-.631c.264-2.023.056-3.93-1.432-5.5a5.917 5.917 0 00-2.247-1.5 5.95 5.95 0 00-2.684-.348.506.506 0 00-.671.04z" fill="#F358B8"/><path d="M40.43 58.334c-.124-1.943-1.104-3.46-2.364-4.768-2.235-2.349-1.535-2.385-3.827 0a8.61 8.61 0 00-2.083 3.385 4.227 4.227 0 00-.11 2.552 4.25 4.25 0 001.382 2.153 3.889 3.889 0 004.399.676c1.727-.767 2.507-2.186 2.603-3.998z" fill="#92E7E6"/><path d="M38.014 87.962c.08.006.16.006.24 0 2.364-.56 2.98-.35 3.971 2.718.076.223.132.453.208.676.752 2.241 1.372 2.539 3.6 1.717 2.043-.755 2.103-.748 3.55.854.552.612 1.06 1.271 1.6 1.9.124.146.284.313.492.142a.351.351 0 00.088-.406.351.351 0 00-.088-.118c-.924-1.192-1.82-2.384-3.071-3.25-.716-.501-1.44-.2-2.148.055-2.747.978-2.8.95-3.679-1.868a11.774 11.774 0 00-.732-1.856 2.39 2.39 0 00-1.126-1.172 2.414 2.414 0 00-1.621-.186c-2.823.433-3.675-.052-4.89-2.675-.113-.242-.113-.794-.537-.616-.492.183-.136.612-.032.898.792 2.174 2.176 3.223 4.175 3.187z" fill="#F9F9FA"/><path d="M13.732 80.015a3.565 3.565 0 001.03 2.539 3.61 3.61 0 002.536 1.07 3.61 3.61 0 002.555-1.023 3.565 3.565 0 00.817-3.89 3.574 3.574 0 00-1.93-1.954 3.62 3.62 0 00-3.93.739 3.574 3.574 0 00-1.078 2.519zm37.503-7.018c-.652-.346-1.248-.794-2.047-.822a3.123 3.123 0 00-1.898.467c-.566.355-1 .881-1.241 1.501a3.07 3.07 0 00.999 3.553 3.12 3.12 0 003.71.067 3.088 3.088 0 001.15-1.571 3.068 3.068 0 00-.021-1.943c-.088-.262-.204-.513-.308-.767-.032-.222-.064-.437-.344-.485z" fill="#E6C250"/><path d="M66.38 70.653c.04.263.066.528.08.794 0 1.713.97 2.933 2.53 3.2a3.12 3.12 0 002.113-.355 3.088 3.088 0 001.379-1.63 3.065 3.065 0 00-.014-2.129 3.09 3.09 0 00-1.398-1.613c-1.38-.795-2.911-.453-4.027.847l-.3.361c-.14.163-.344.282-.364.525z" fill="#F157B7"/><path d="M56.998 58.791c1.431-.667 2.399-1.673 2.283-3.354a3.092 3.092 0 00-.978-1.987 3.13 3.13 0 00-4.158-.088 3.094 3.094 0 00-1.063 1.944 3.092 3.092 0 00.51 2.127 3.126 3.126 0 001.794 1.267c.309.06.621.1.936.119a.486.486 0 00.675-.028zM11.377 73.335c-.002.453.13.897.381 1.275a2.321 2.321 0 003.545.371 2.288 2.288 0 00.521-2.492c-.17-.42-.462-.78-.839-1.036a2.318 2.318 0 00-1.276-.399 2.296 2.296 0 00-1.65.652 2.268 2.268 0 00-.682 1.629z" fill="#9787F9"/><path d="M23.362 69.055a2.09 2.09 0 00-1.442.578c-.387.37-.616.875-.637 1.41a2.083 2.083 0 00.576 1.49c.383.401.91.635 1.467.651a2.134 2.134 0 001.436-.587c.386-.368.62-.868.651-1.4a2.066 2.066 0 00-.575-1.497 2.09 2.09 0 00-1.476-.645z" fill="#EF56B6"/><path d="M73.717 19.134a1.704 1.704 0 00-1.295.476 1.684 1.684 0 00-.508 1.276 1.75 1.75 0 00.534 1.268 1.773 1.773 0 001.29.5 1.806 1.806 0 001.287-.512 1.782 1.782 0 00.397-1.96 1.729 1.729 0 00-1.005-.947 1.749 1.749 0 00-.7-.101z" fill="#F3F4F5"/><path d="M113.755 34.198c-.596.044-.4.596-.588.906-.4.067-.4.44-.536.7a1.943 1.943 0 01-.745.812 1.966 1.966 0 01-1.07.28c-.832 0-1.368-.52-1.756-1.192-.212-.374-.244-.823-.488-1.192-1.091-.358-.3.616-.591.822.419 1.816 1.675 2.73 3.399 2.472 1.615-.238 2.475-1.55 2.375-3.608z" fill="#F2F3F3"/><path d="M71.266 20.838v-1.192c0-.219.048-.5-.316-.493-.364.008-.4.25-.352.493.1.691-.12.918-.876.934-.84.02-.887-.362-.831-.978.02-.238-.02-.477-.368-.453-.348.024-.324.278-.328.509v2.348c0 .235-.02.49.308.533.451.056.42-.29.4-.54-.1-.72.155-.962.903-.926.596.027.88.155.8.794-.032.294-.092.704.4.664.424-.032.24-.397.26-.652.024-.334 0-.675 0-1.04z" fill="#F7F7F8"/><path d="M46.852 34.317v-1.192c0-.219.036-.509-.312-.509s-.368.282-.336.505c.12.759-.228.894-.928.902-.7.008-.867-.306-.8-.914.025-.223.029-.505-.32-.497-.347.008-.323.29-.327.517v2.36c0 .25.04.505.352.505s.32-.302.304-.52c-.048-.589.036-.942.8-.942.763 0 1.023.218.923.941-.032.247.032.509.332.521.3.012.32-.274.324-.509a55.07 55.07 0 01-.012-1.168z" fill="#EDEDEF"/><path d="M102.566 90.772a.476.476 0 00.564.29c.856-.135 1.12.254 1.016 1.04-.028.235.036.517.331.517.296 0 .328-.305.288-.524-.188-.962.324-1.129 1.124-1.041.228.028.508-.048.504-.354-.004-.306-.316-.318-.524-.282-.996.183-1.2-.314-1.108-1.16.024-.171.044-.398-.228-.457a.255.255 0 00-.331.234c.056.994-.196 1.645-1.4 1.399-.14-.028-.264.139-.236.338z" fill="#ECEDEF"/><path d="M48.8 36.11c.78-.112 1.431-.374 1.707-1.125a1.66 1.66 0 00-.428-1.936 1.853 1.853 0 00-2.087-.298c-.2.08-.52.171-.4.465.176.485.492.151.748.056a1.162 1.162 0 011.343.304 1.145 1.145 0 01.096 1.365 1.134 1.134 0 01-1.347.469c-.3-.068-.72-.517-.832.071-.076.398.476.425.8.54.13.04.264.069.4.088z" fill="#EFF0F1"/><path d="M65.823 84.986c.46-.107.516-.314.488-.5-.12-.879.152-1.34 1.132-1.165a.403.403 0 00.484-.234c.064-.187-.048-.294-.192-.37-.436-.23-1.096.262-1.376-.338-.184-.397.096-.922-.192-1.287-.296-.048-.4.095-.4.242.036.866-.04 1.59-1.24 1.343a.338.338 0 00-.364.179.33.33 0 00-.035.14c0 .102.208.317.276.301 1.495-.365 1.315.803 1.42 1.689zM18.731 46.572c.04.298.32.282.532.258.8-.095 1.172.191 1.056 1.03-.032.222 0 .536.28.56.432.032.36-.354.332-.592-.084-.732.132-1.113.947-.994.248.036.636.08.668-.274.036-.425-.4-.338-.612-.306-.867.127-1.103-.27-1.003-1.053.028-.203.088-.5-.244-.56a.298.298 0 00-.345.208.293.293 0 00-.003.145c.156 1.038-.288 1.427-1.304 1.268-.156-.024-.304.064-.304.31z" fill="#F1F1F3"/><path d="M23.67 91.65c.8-.064 1.244-.505 1.228-1.216a1.111 1.111 0 00-.752-1.106 1.131 1.131 0 00-.472-.058c-.318 0-.623.125-.848.349a1.188 1.188 0 000 1.686c.225.223.53.349.848.349l-.004-.004z" fill="#EEEFF0"/><path d="M90.513 27.876c0 .317.272.333.492.306.852-.116 1.284.155 1.132 1.077-.036.21-.044.528.303.512.348-.016.288-.338.26-.54-.112-.823.212-1.165 1.048-1.05.212.028.528.068.564-.254.036-.322-.284-.341-.5-.31-.884.14-1.248-.202-1.111-1.096.027-.2.063-.517-.292-.513-.268 0-.304.25-.272.43.172 1.028-.324 1.318-1.256 1.191a.309.309 0 00-.368.247zm39.39 5.44c-.364.123-.276.445-.248.683.076.688-.132 1.03-.896.938-.26-.032-.736-.17-.712.322 0 .361.44.266.676.234.86-.119.996.338.928 1.03-.02.214-.08.536.228.572.44.051.372-.342.34-.572-.116-.847.252-1.13 1.06-1.026.2.024.52.076.54-.258.02-.334-.288-.338-.504-.306-.896.143-1.224-.23-1.096-1.097.028-.206.036-.489-.316-.52z" fill="#FEFEFE"/><path d="M56.998 58.791l-.676.028c.168 1.013.34 2.027.508 3.04l.675-.04c-.173-1.01-.342-2.019-.508-3.028z" fill="#ECECEE"/><path d="M66.38 70.653a.495.495 0 00.363-.517l-2.88-.97c-.235.156-.183.398-.211.632l2.727.855z" fill="#F3F1F4"/><path d="M43.177 35.076a3.139 3.139 0 00-1.56-.111c.04.361.8.715 0 1.077-.235.107-.16.548.08.727a1.248 1.248 0 001.564 0c-.152-.509-.4-.199-.604-.199a.616.616 0 01-.62-.246c.868.028.328-1.14 1.14-1.248z" fill="#D2D3D7"/><path d="M51.235 72.997l.344.485 2.191-1.812-.332-.489-2.203 1.816z" fill="#EFEFF0"/><path d="M149.094 144.691c.084.262-.044.608.312.755 4.939 0 9.878-.06 14.796 0 .928 0 1.232-.246 1.304-1.144.908-11.242-.292-22.317-2.627-33.304a.966.966 0 00-.18-.294c-.212 2.185-.5 4.371-1.408 6.394-1.328 2.98-3.647 3.715-6.398 1.986-2.892-1.823-4.891-4.514-6.939-7.152-.715-.926-1.243-1.987-2.099-2.814.56 2.361 1.152 4.713 1.668 7.082a96.797 96.797 0 011.915 14.555 84.573 84.573 0 01-.344 13.936z" fill="#3EAAAF"/><path d="M145.891 63.274c.516-.112.888-.398.856-.954a.85.85 0 00-.299-.688.86.86 0 00-.729-.19.853.853 0 00-.784.63.848.848 0 00-.016.355.914.914 0 00.972.847z" fill="#FDF9F6"/><path d="M167.913 104.847c-.827-1.006-1.635-2.039-2.843-2.647v.246c1.068.66 1.628 1.916 2.843 2.401z" fill="#E0E5D6"/><path d="M16.304 20.568a1.875 1.875 0 001.45-.53 1.852 1.852 0 00.55-1.433 1.92 1.92 0 00-.537-1.447 1.945 1.945 0 00-1.431-.596 2.21 2.21 0 00-1.417.627c-.38.373-.612.87-.65 1.4a1.928 1.928 0 00.586 1.428 1.951 1.951 0 001.449.551z" fill="#CBCBCB"/><path d="M7.558 19.396c.9-.116 1.468-.596 1.468-1.51s-.708-1.371-1.508-1.514c-.688-.123-1.6.882-1.535 1.625.083.918.675 1.343 1.575 1.399zm1.464 9.794c.144.728.516 1.292 1.303 1.253a1.237 1.237 0 00.919-.37 1.219 1.219 0 00.345-.922c-.04-.68-.436-1.303-1.284-1.252-.775.06-1.16.549-1.283 1.292zm4.751-4.652c.18.683.54 1.247 1.335 1.192a1.273 1.273 0 001.14-.826 1.252 1.252 0 00-.332-1.361 1.271 1.271 0 00-.912-.332c-.768.007-1.14.556-1.231 1.327z" fill="#CCC"/><path d="M136.829 92.333c-1.199.97-2.611 1.455-4.055 1.892-.06 3.294-.184 6.588-.32 9.875-.076 1.855-.152 3.739-.34 5.61a11.717 11.717 0 00.576 5.223 11.768 11.768 0 002.804 4.453c.871.891 1.843 1.705 2.767 2.56.535.493.96 1.093 1.245 1.761.286.667.425 1.388.41 2.113.088 3.517-.639 6.938-1.375 10.332-.676 3.119.052 5.606 2.175 7.84 1.356 1.422 2.708 2.853 4.063 4.275.552.581 1.2 1.232 2 1.069.891-.182 1.063-1.12 1.291-1.939.4-1.446.4-2.94.584-4.407.4-3.079.292-6.187.26-9.282a89.43 89.43 0 00-2.127-18.005 83.534 83.534 0 00-7.734-21.267c-.332-.624-.704-1.228-1.056-1.84l-1.168-.263zm26.793 8.472a5.97 5.97 0 01-1.407-1.39c-.8-.124-1.056-1.03-1.928-1.348.62 2.317 1.224 4.523 1.804 6.732a140.32 140.32 0 013.407 17.46c.4 3.092.648 6.211.8 9.339.144 2.551.176 5.094.144 7.637-.028 2.102-.308 4.204-.432 6.31-.028.505-.26 1.193.448 1.439.64.222 1.115-.231 1.555-.636 4.019-3.723 4.519-7.55 2.524-12.716-.656-1.705-1.636-3.306-1.704-5.217-.056-1.618.688-2.961 1.376-4.32.936-1.851 1.599-3.755 1.483-5.853-.104-1.927-.959-3.628-1.755-5.325-1.78-3.68-3.76-7.262-5.931-10.729-.232-.401-.643-.806-.384-1.383z" fill="#FEFEFE"/><path d="M88.594 99.61l-.476.21c-1.2.759-2.16 1.792-3.475 2.384a9.976 9.976 0 01-7.119.548c-.508-.151-1.023-.492-1.56-.059.545 1.589 1.82 2.619 2.964 3.743 3.52 2.158 7.106 2.452 10.737.318 2.136-1.252 3.467-3.143 4.223-5.484.256-.794 0-1.025-.712-1.192a18.544 18.544 0 00-4.582-.469z" fill="#D9AF2C"/><path d="M41.062 13.487c-.568-.481-1.248-.111-1.86-.243-1.667.104-1.667.104-1.667 1.757 0 2.11.055 4.228 0 6.358-.048 1.311.331 2.213 1.687 2.543l.536-.199c-.352-2.932-.072-5.88-.176-8.817-.06-1.153.996-.926 1.48-1.4z" fill="#00E8A7"/><path d="M41.062 13.487a7.189 7.189 0 01-.828 0c-.744-.08-1.056.17-1.044.973.044 2.742 0 5.484 0 8.222 0 .425-.08.898.532 1.01 1.016-.156 1.356-.859 1.356-1.761.02-2.817-.004-5.63-.016-8.444z" fill="#00CD8B"/><path d="M75.965 102.689c1.291.115 2.447.747 3.79.771 3.388.071 6.223-.958 8.363-3.636-1.292-.072-2.448.52-3.683.735-2.726.457-5.517.35-8.198-.314-1.128-.266-1.244 0-.916.946.116.334.196.675.292 1.013l.352.485z" fill="#EBC651"/><path d="M141.088 82.192c.276 2.432-.284 4.73-1.144 6.978 1.656.08 3.316.187 4.959-.178 2.104-.47 2.568-1.793 1.108-3.374-1.376-1.498-3.111-2.531-4.923-3.426z" fill="#ECB37D"/><path d="M119.93 82.84c.263-2.42 1.335-4.478 2.867-6.334-1.764-.167-3.527-.421-5.295-.028a9.31 9.31 0 00-.916.219c-1.715.56-2.043 1.61-.871 2.996a12.44 12.44 0 004.215 3.147z" fill="#09112B"/><path d="M80.743 91.141c-1.103.258-2.235.596-2.863 1.749-.296.544-.4 1.144.028 1.657a1.6 1.6 0 001.6.52 3.817 3.817 0 002.6-1.685c.315-.469.491-1.013.14-1.545a1.704 1.704 0 00-1.505-.696z" fill="#FDFEFE"/><path d="M105.397 55.123c0 2.945.056 5.894-.028 8.834-.032 1.14.4 1.236 1.284.938l.448-.163c2.031-.72 2.143-.874 2.143-3V48.773c0-2.3-.308-2.71-2.519-3.35-1.252-.361-1.328-.313-1.328.982v8.718zm-.652.012c0-2.984-.04-5.96.024-8.96.024-.966-.36-1.026-1.091-.795a9.253 9.253 0 00-2.148.973 1.192 1.192 0 00-.608 1.165c0 5.074.04 10.145 0 15.215 0 1.129.8 1.36 1.492 1.713 2.155 1.093 2.343.965 2.343-1.395l-.012-7.916z" fill="#09112B"/><path d="M87.01 46.671v16.932c1.228-.44 3.043-2.865 3.047-4.077 0-2.475-.184-4.967.052-7.419.252-2.602-1.431-3.953-3.1-5.436zm36.975 16.404V47.24c-1.436 1.398-3.024 2.245-2.832 4.478a44.228 44.228 0 010 6.592 3.864 3.864 0 00.284 1.992 3.888 3.888 0 001.248 1.585c.396.318.744.68 1.3 1.188z" fill="#09122B"/><path d="M109.944 63.035a20.056 20.056 0 002.487-2.444 1.91 1.91 0 00.492-1.386c0-2.707-.04-5.413 0-8.119 0-.77-.38-1.24-.827-1.736a11.565 11.565 0 00-2.164-2.015l.012 15.7z" fill="#09132C"/><path d="M100.195 47.43a17.751 17.751 0 00-2.464 2.575c-.254.35-.365.784-.312 1.212 0 2.277.096 4.554-.028 6.823a4.018 4.018 0 001.432 3.52c.432.398.74.899 1.372 1.193V47.43z" fill="#09122B"/><path d="M120.577 59.121v-7.947l-.212-.151c-.943 1.295-1.887 2.594-2.843 3.886-.192.266 0 .453.116.628.892 1.236 1.8 2.46 2.703 3.687l.236-.103z" fill="#09152D"/><path d="M113.575 51.46v7.367l.208.151c.872-1.192 1.744-2.412 2.619-3.612.192-.262 0-.437-.128-.62a533.316 533.316 0 00-2.479-3.394l-.22.108z" fill="#0A142C"/><path d="M90.817 59.097c.058-.043.113-.091.164-.143 2.691-3.747 2.691-3.747-.164-7.824v7.967z" fill="#09122B"/><path d="M96.564 51.523c-.712 1.073-1.42 2.15-2.14 3.219a.685.685 0 00.032.862c.72 1.07 1.428 2.15 2.307 3.481v-7.447l-.2-.115z" fill="#0A182F"/><path d="M63.136 47.192c1.296-.084 3.155.564 4.367-.219 1.212-.782 1.647-2.511 2.427-3.826a13.2 13.2 0 011.084-1.824c1.32-1.59 1.296-3.008.052-4.69-1.2-1.589-2.088-3.42-3.051-5.165a1.254 1.254 0 00-1.3-.735 322.35 322.35 0 01-7.83 0 1.206 1.206 0 00-1.2.68 311.748 311.748 0 01-3.975 6.826 1.29 1.29 0 00.024 1.506c1.328 2.23 2.64 4.47 3.915 6.732a1.263 1.263 0 001.308.743c1.288-.06 2.591-.028 4.179-.028zm49.771-13.407a2.444 2.444 0 001.6-2.015 5.897 5.897 0 011.779-3.247 7.553 7.553 0 001.34-9.116 7.713 7.713 0 00-3.59-3.306 7.777 7.777 0 00-4.868-.502 7.746 7.746 0 00-4.198 2.502 7.663 7.663 0 00-1.844 4.506 7.213 7.213 0 00.457 3.189 7.271 7.271 0 001.798 2.68 5.776 5.776 0 011.864 3.318 2.462 2.462 0 001.511 1.987c.46-.438.356-1.014.36-1.546v-5.877a1.747 1.747 0 01.968-1.625 1.61 1.61 0 011.776.15c.539.354.603.879.607 1.439v6.112c.04.46-.112 1.025.44 1.35z" fill="#09112B"/><path d="M109.44 34.047a3.215 3.215 0 002.887.02c.177-.216.265-.49.248-.767 0-2.353.036-4.71 0-7.061a1.615 1.615 0 00-.451-1.186 1.65 1.65 0 00-1.168-.507c-.92-.024-1.624.469-1.688 1.327a47.47 47.47 0 00.02 7.864c-.004.115.092.206.152.31z" fill="#0A122C"/><path d="M109.44 34.047c0-2.468.032-4.935 0-7.407 0-.982.264-1.725 1.368-1.82.92-.08 1.471.632 1.479 1.844 0 2.467 0 4.935.028 7.403a.765.765 0 00.596-.286c0-2.385 0-4.769-.028-7.18 0-1.53-.835-2.492-2.083-2.453-1.248.04-2 .982-2 2.432-.02 2.384-.02 4.769-.032 7.18.14.247.42.259.672.287z" fill="#F6F6F7"/><path d="M108.572 34.512c.024 1.57.764 2.543 2.056 2.702 1.2.147 2.127-.616 2.539-2.106-.144-.636-.584-.366-.928-.282a5.632 5.632 0 01-3.667-.314z" fill="#0B132C"/><path d="M58.185 72.75a5.247 5.247 0 003.678-1.533 5.18 5.18 0 001.52-3.664 5.293 5.293 0 00-1.6-3.626 5.36 5.36 0 00-3.682-1.516 5.27 5.27 0 00-3.672 1.562 5.204 5.204 0 00-1.506 3.676 5.093 5.093 0 001.554 3.647 5.158 5.158 0 003.708 1.455zM32.528 58.16c.088 1.66.736 2.845 2.14 3.544a3.338 3.338 0 003.842-.564 3.61 3.61 0 001.068-3.974c-.548-1.729-1.752-3.044-3.011-4.304-.204-.206-.424-.397-.7-.099-1.556 1.59-3.055 3.199-3.34 5.396zM17.312 77.134a3.005 3.005 0 00-2.08.864 2.967 2.967 0 00-.884 2.06c.024.775.342 1.512.89 2.062a3.096 3.096 0 002.066.907 3.026 3.026 0 002.127-.892 2.986 2.986 0 00.864-2.128 2.888 2.888 0 00-.888-2.056 2.921 2.921 0 00-2.095-.817z" fill="#09112B"/><path d="M46.484 75.246a2.434 2.434 0 00.716 1.779 2.464 2.464 0 001.785.722 2.478 2.478 0 001.762-.776 2.445 2.445 0 00.66-1.8 2.433 2.433 0 00-.715-1.779 2.463 2.463 0 00-1.786-.722 2.477 2.477 0 00-1.762.777 2.443 2.443 0 00-.66 1.8z" fill="#0A122B"/><path d="M69.522 69.17a2.563 2.563 0 00-1.745.762 2.531 2.531 0 00-.73 1.75 2.6 2.6 0 00.814 1.711 2.632 2.632 0 001.765.713 2.543 2.543 0 001.69-.767 2.511 2.511 0 00.71-1.705 2.435 2.435 0 00-.73-1.755 2.464 2.464 0 00-1.774-.708z" fill="#0A112B"/><path d="M56.122 58.16a2.51 2.51 0 001.77-.696 2.472 2.472 0 00.761-1.733 2.464 2.464 0 00-.732-1.7 2.496 2.496 0 00-3.452-.055 2.465 2.465 0 00-.787 1.676 2.445 2.445 0 00.696 1.758 2.475 2.475 0 001.744.75z" fill="#09112C"/><path d="M13.7 75.056a1.8 1.8 0 001.2-.55c.314-.327.492-.762.496-1.215a1.76 1.76 0 00-.562-1.121 1.782 1.782 0 00-1.17-.468 1.733 1.733 0 00-1.203.532 1.71 1.71 0 00-.476 1.22c.037.43.233.831.55 1.127a1.77 1.77 0 001.165.475z" fill="#0B132E"/><path d="M23.418 72.516c.8-.11 1.336-.568 1.316-1.45a1.28 1.28 0 00-.397-1.013 1.298 1.298 0 00-1.035-.35 1.332 1.332 0 00-1.018.405 1.312 1.312 0 00-.362 1.03c.028.838.564 1.327 1.496 1.378z" fill="#0D122E"/><path d="M72.59 20.906c.08.663.4 1.1 1.127 1.1a1.15 1.15 0 00.779-.337 1.137 1.137 0 00-.727-1.94 1.103 1.103 0 00-.864.317 1.088 1.088 0 00-.315.86z" fill="#0E162F"/><path d="M23.134 90.426c.04.322.212.552.516.568a.506.506 0 00.567-.333.498.498 0 00.02-.235.489.489 0 00-.345-.457.5.5 0 00-.202-.02.554.554 0 00-.556.477z" fill="#19213A"/><path d="M33.807 58.748c.124 1.16.676 1.847 1.704 2.125.22.06.5.136.592-.17.092-.306-.152-.398-.4-.465a1.542 1.542 0 01-.896-.529 1.524 1.524 0 01-.352-.973c0-.247.092-.656-.312-.62-.404.035-.336.44-.336.632z" fill="#8AD8D9"/></g><defs><clipPath id="clip0_121_1059"><path fill="#fff" transform="matrix(-1 0 0 1 189 0)" d="M0 0h189v150H0z"/></clipPath></defs></svg>